<svg aria-hidden="true" style="position: absolute; width: 0; height: 0; overflow: hidden;" version="1.1" xmlns="http://www.w3.org/2000/svg" xmlns:xlink="http://www.w3.org/1999/xlink">
    <defs>
        <symbol id="logo-header" viewBox="0 0 28 26" fill="none">
            <path fill="#333" d="m23.63 21.1 1.28 2.95c.24.55.89.8 1.46.58.57-.22.84-.85.6-1.4l-1.28-2.94-2.06.81ZM24.49 23.07l2.05-.81-2.05.81ZM20.94 14.88l2.9 1.15-2.9-1.15ZM22.52 8.9a2.9 2.9 0 0 1-2.97 2.83 2.9 2.9 0 0 1-2.97-2.83 2.9 2.9 0 0 1 2.97-2.84 2.9 2.9 0 0 1 2.97 2.84Z"/><path fill="#333" d="M21.04 8.9c0 .78-.67 1.42-1.49 1.42s-1.48-.64-1.48-1.42c0-.79.66-1.42 1.48-1.42s1.49.63 1.49 1.42ZM17.47 10.92l-4.06 9.37-1.02 4.2.69.28 2.39-3.67.57-1.3a1.98 1.98 0 0 1 1.13-2.63l2.36-5.44c-.8 0-1.53-.31-2.06-.81ZM21.63 10.92c-.53.5-1.25.8-2.05.81l3.49 8.06 2.05-.81-3.49-8.06ZM20.67 4.64v-3.2c0-.58-.5-1.06-1.12-1.06-.61 0-1.11.48-1.11 1.07v3.19h2.23ZM19.55 6.06c.2 0 .38.02.56.05V4.64H19v1.47c.18-.03.36-.05.55-.05ZM4.1 25.94H.4V.38h3.7c.81 0 1.48.64 1.48 1.42v22.72c0 .79-.67 1.42-1.48 1.42Z"/><path fill="#333" d="M3.91 2.51c.3 0 .56-.24.56-.53 0-.3-.25-.53-.56-.53-.3 0-.55.23-.55.53 0 .3.24.53.55.53ZM8.17 15.47c0 .3.25.53.55.53.31 0 .56-.24.56-.53 0 .3.25.53.56.53a.55.55 0 0 1-.56-.53c0 .3-.25.53-.55.53a.55.55 0 0 1-.56-.53Z"/><path fill="#333" d="M8.91.38c-.4 0-.74.32-.74.71V16l1.11 4.26L10.39 16V1.1c0-.4-.33-.72-.74-.72h-.74Z"/>
        </symbol>
        <symbol id="arrow-right" viewBox="0 0 18 9">
            <path fill-rule="evenodd" d="M0 4.5c0-.28.22-.5.5-.5h16a.5.5 0 0 1 0 1H.5a.5.5 0 0 1-.5-.5Z" clip-rule="evenodd"/>
            <path fill-rule="evenodd" d="M12.65.65c.2-.2.5-.2.7 0l3.86 3.85-3.86 3.85a.5.5 0 0 1-.7-.7l3.14-3.15-3.14-3.15a.5.5 0 0 1 0-.7Z" clip-rule="evenodd"/>
        </symbol>
        <symbol id="map-pin" viewBox="0 0 11 16" fill="none">
            <path d="M1.51 9.26 5.5 15.1l3.99-5.85v-.01c.693529-1.0476471 1.08-2.37 1-3.73-.058295-1.3053899-.5753109-2.5483522-1.46-3.51C7.0926793.0210949 3.9073207.0210949 1.97 2m-.46 7.26C.75932347 8.1559177.47097162 6.846769.51 5.54m0 0C.5526872 4.2212226 1.0932507 2.9030788 1.97 2m1.26 3.54c-.0055534 1.2829498 1.0270854 2.3289995 2.31 2.34 1.2868284-.005511 2.3255347-1.0531717 2.32-2.34.0110913-1.2907247-1.0292393-2.3445079-2.32-2.35-1.2868435.0109985-2.3210933 1.0631573-2.31 2.35Z" style="fill:none"/>
        </symbol>
        <symbol id="phone" viewBox="0 0 17 16">
            <path d="m16.003 12.627.991-.13-.004-.033-.007-.033-.98.196Zm-.238.678.705.71.003-.003-.707-.707Zm-2.254 2.237-.704-.71-.02.02-.019.021.743.67Zm-.398.288-.434-.9.434.9Zm-.483.153v1h.071l.07-.01-.141-.99Zm-.102.008.1.996-.1-.995Zm-3.025-.644.383-.923-.383.923Zm-2.365-1.296.548-.837-.548.837Zm-2.813-2.373.711-.703-.01-.01-.701.713ZM2.359 9.44l-.808.59.808-.59ZM1.105 7.466l.886-.464-.886.464ZM.02 3.373l-.99-.142-.01.07v.072h1Zm.44-.881.67.743.019-.018.019-.018-.708-.707ZM2.715.237l.707.707-.707-.707Zm1.22.204.885-.467-.02-.036-.021-.034-.844.537Zm1.814 3.44-.885.467.006.012.007.012.872-.49Zm-.204 1.136-.707-.707.707.707Zm-.83.83.707.708-.707-.708Zm-.085.238h-1v.094l.018.093.982-.187Zm.305.813.894-.447-.003-.006-.003-.007-.888.46Zm1.83 2.34.715-.7-.007-.008-.008-.008-.7.715Zm1.356 1.211-.588.808.588-.808Zm1.602.881.196-.98-.196.98Zm.212.043-.196.98.097.02h.099v-1Zm.11-.026.316.95v-.001l-.316-.949Zm.11-.059.708.707.006-.006-.714-.701Zm.966-.983-.664-.748-.025.023-.024.024.713.701Zm1.17-.17-.515.858.238.143h.277v-1Zm.017 0 .508-.86-.235-.14h-.273v1Zm3.271 1.933.526-.85-.008-.006-.01-.005-.508.86Zm-.568.689a.227.227 0 0 1 .014-.096c.016-.047.038-.067.033-.063l1.415 1.414c.402-.402.597-.933.521-1.514l-1.983.259Zm.05-.162-2.254 2.237 1.409 1.42 2.254-2.237-1.409-1.42Zm-2.293 2.278s-.005.006-.019.016a.46.46 0 0 1-.07.04l.868 1.802c.26-.125.504-.294.708-.52l-1.487-1.338Zm-.09.057a.654.654 0 0 1-.19.063l.283 1.98c.273-.04.533-.124.777-.242l-.87-1.801Zm-.048.053c-.075 0-.173.01-.201.013l.199 1.99c.012 0 .023-.002.032-.003l.02-.002a.027.027 0 0 0 .001 0l-.014.001h-.037v-2Zm-.2.013c-.011.002-.049.004-.122.004v2c.107 0 .217-.003.32-.013l-.199-1.99Zm-.122.004c-.132 0-.415-.026-.891-.099l-.303 1.977c.484.074.897.122 1.194.122v-2Zm-.891-.099c-.37-.056-.875-.205-1.531-.477L9.12 16.27c.733.304 1.404.517 1.994.607l.303-1.977Zm-1.531-.477c-.62-.257-1.352-.655-2.2-1.21L6.59 14.888c.915.598 1.759 1.064 2.529 1.383l.766-1.847Zm-2.2-1.21c-.806-.527-1.69-1.268-2.65-2.24l-1.422 1.407c1.028 1.04 2.02 1.881 2.977 2.507l1.095-1.674Zm-2.66-2.248c-.761-.751-1.379-1.456-1.86-2.115l-1.615 1.18c.559.764 1.252 1.55 2.072 2.36l1.404-1.425ZM3.167 8.85a14.954 14.954 0 0 1-1.175-1.849L.219 7.93c.344.659.791 1.36 1.332 2.1l1.615-1.179ZM1.991 7.002a9.653 9.653 0 0 1-.646-1.486l-1.904.612c.18.56.443 1.162.778 1.802l1.772-.928Zm-.646-1.486a7.753 7.753 0 0 1-.287-1.122l-1.975.314c.067.423.19.899.358 1.42l1.904-.612Zm-.287-1.122a3.322 3.322 0 0 1-.057-.627l-1.997-.11c-.017.308.018.67.079 1.05l1.975-.313Zm-.057-.627c.01-.18.019-.335.019-.394h-2v-.008l-.003.06-.013.231 1.997.111Zm.009-.253a.656.656 0 0 1 .063-.19l-1.801-.869a2.646 2.646 0 0 0-.242.776l1.98.283Zm.063-.19a.472.472 0 0 1 .04-.07l.016-.02-1.338-1.486a2.267 2.267 0 0 0-.52.707l1.802.87Zm.095-.125L3.422.944 2.008-.47-.247 1.784 1.168 3.2ZM3.422.944c.002-.002-.014.015-.052.031A.29.29 0 0 1 3.257 1v-2c-.496 0-.924.205-1.25.53L3.423.944ZM3.257 1a.375.375 0 0 1-.21-.073l1.2-1.6A1.632 1.632 0 0 0 3.257-1v2Zm-.21-.073a.18.18 0 0 1 .044.05L4.78-.095a2.178 2.178 0 0 0-.532-.577l-1.2 1.6Zm.003-.02 1.814 3.44 1.77-.932L4.82-.025 3.05.906Zm1.827 3.465a.194.194 0 0 1-.02-.065c-.005-.028-.001-.043-.002-.038l1.957.412a1.824 1.824 0 0 0-.192-1.29l-1.743.98Zm-.022-.103a.13.13 0 0 1-.01.033.03.03 0 0 1-.007.008l1.414 1.414c.292-.292.477-.65.56-1.043l-1.957-.412Zm-.017.04-.83.831 1.414 1.415.83-.831L4.838 4.31Zm-.83.831c-.183.183-.264.39-.301.501l1.897.633a.813.813 0 0 1-.182.28L4.008 5.14Zm-.301.501c-.034.101-.077.259-.077.444h2a.71.71 0 0 1-.026.189L3.707 5.64Zm-.06.63c.07.364.215.73.4 1.088l1.776-.921a2.102 2.102 0 0 1-.21-.54l-1.965.374Zm.394 1.075c.17.34.413.72.711 1.13l1.62-1.173a6.526 6.526 0 0 1-.543-.852l-1.788.895Zm.711 1.13c.328.453.772.946 1.314 1.476l1.399-1.43c-.498-.486-.856-.892-1.093-1.219l-1.62 1.174Zm1.299 1.46c.53.543 1.025.989 1.482 1.321L8.71 9.641c-.334-.244-.743-.606-1.23-1.103L6.05 9.936Zm1.482 1.321c.414.302.793.549 1.125.718l.91-1.78a6.903 6.903 0 0 1-.858-.554l-1.177 1.616Zm1.125.718c.28.143.586.28.87.336l.39-1.961c.014.002-.01-.001-.08-.03a3.455 3.455 0 0 1-.27-.126l-.91 1.781Zm.869.336.212.042.392-1.96-.212-.043-.392 1.96Zm.408.062c.201 0 .375-.06.426-.077L9.73 10.4c-.007.002.003-.002.026-.007a.704.704 0 0 1 .18-.02v2Zm.427-.077c.11-.037.318-.118.5-.3L9.449 10.58a.815.815 0 0 1 .28-.182l.634 1.897Zm.507-.307.966-.983-1.427-1.402-.966.983 1.427 1.402Zm.917-.936a.14.14 0 0 1 .018-.015c.002 0 .003-.001.003-.002h.004c.003-.001.01-.002.022-.002v-2c-.517 0-.99.18-1.376.523l1.329 1.496Zm.047-.02c.04 0 .05.004.042.002a.35.35 0 0 1-.099-.042l1.03-1.715c-.324-.194-.677-.244-.973-.244v2Zm.458.103h.017v-2h-.017v2Zm-.492-.14 3.271 1.933 1.018-1.722-3.272-1.933-1.017 1.723Zm3.254 1.922c.033.02.03.026.013.004a.236.236 0 0 1-.044-.099l1.961-.392c-.11-.554-.459-.954-.878-1.213l-1.053 1.7Z" mask="url(#a)"/>
        </symbol>
        <symbol id="email" viewBox="0 0 16 11" fill="none">
            <path stroke-width=".8" d="m8.1395 6.1617-.0044.0029a.2037.2037 0 0 1-.1116.0324h-.0034c-.0636 0-.1043-.0216-.1175-.0328l-.0007-.0006L1.0999.4h13.8359L8.4497 5.9025l-.0004.0004-.285.2423-.0008.0006-.024.0159Zm1.8951.3276L15.0112 10.6H.9839l4.9874-4.1412.9927.8417.0011.001c.293.2465.6694.3765 1.0572.3765.3876 0 .7643-.131 1.0573-.3783l.001-.0008.954-.8096Zm-5.2047-.9978L.4 9.1705V1.7376l4.43 3.7538ZM15.6 1.7688v7.4068l-4.4235-3.6544L15.6 1.7688Z"/>
        </symbol>
        <symbol id="facebook" viewBox="0 0 10 19">
            <path fill-rule="evenodd" d="M6.14 19h-4.1V9.5H0V6.23h2.05V4.26C2.05 1.6 3.2 0 6.48 0H9.2v3.28H7.5c-1.28 0-1.37.46-1.37 1.3v1.65h3.09L8.87 9.5H6.14V19Z" clip-rule="evenodd"/>
        </symbol>
        <symbol id="twitter" viewBox="0 0 21 16">
            <path fill-rule="evenodd" d="M21 1.9c-.77.32-1.6.53-2.47.63.9-.5 1.58-1.3 1.9-2.23-.84.46-1.76.8-2.74.98A4.44 4.44 0 0 0 14.54 0c-2.38 0-4.3 1.81-4.3 4.04 0 .32.03.63.1.92A12.53 12.53 0 0 1 1.47.74c-.37.6-.58 1.3-.58 2.03 0 1.4.76 2.64 1.92 3.36-.71-.02-1.37-.2-1.96-.5v.05A4.12 4.12 0 0 0 4.3 9.64a4.6 4.6 0 0 1-1.94.07 4.3 4.3 0 0 0 4.02 2.8A9.02 9.02 0 0 1 0 14.2 12.81 12.81 0 0 0 6.6 16c7.94 0 12.27-6.15 12.27-11.5L18.86 4A8.5 8.5 0 0 0 21 1.89Z" clip-rule="evenodd"/>
        </symbol>
        <symbol id="linkedin" viewBox="0 0 20 19">
            <path fill-rule="evenodd" d="M18.51 18.01H1.5c-.82 0-1.48-.58-1.48-1.29V1.28C.01.57.67 0 1.5 0H18.5c.82 0 1.48.58 1.48 1.3v15.43c0 .71-.66 1.3-1.48 1.3ZM3.47 15.04h2.94V6.91H3.47v8.13Zm1.5-12.06c-1.01 0-1.67.61-1.67 1.41 0 .78.64 1.4 1.62 1.4h.02c1.03 0 1.67-.62 1.67-1.4C6.59 3.6 5.97 3 4.96 3Zm12.05 7.4c0-2.5-1.45-3.66-3.38-3.66-1.57 0-2.26.78-2.66 1.34V6.91H8.04c.04.76 0 8.13 0 8.13H11V10.5c0-.24.01-.49.1-.66.2-.49.69-.99 1.5-.99 1.07 0 1.5.75 1.5 1.84v4.35h2.93v-4.66Zm-6.05-2.3.01-.02v.03h-.02Z" clip-rule="evenodd"/>
        </symbol>
        <symbol id="pininterest" viewBox="0 0 14 18">
            <path fill-rule="evenodd" d="M7.424 0C2.489 0 .001 3.522.001 6.46c0 1.778.676 3.36 2.127 3.95.238.097.451.003.52-.259.048-.181.162-.639.212-.83.07-.259.043-.35-.149-.576-.419-.491-.686-1.127-.686-2.028 0-2.613 1.964-4.952 5.114-4.952 2.789 0 4.321 1.697 4.321 3.962 0 2.982-1.325 5.498-3.293 5.498-1.086 0-1.899-.895-1.639-1.992.313-1.309.917-2.723.917-3.669 0-.846-.456-1.552-1.401-1.552-1.11 0-2.002 1.144-2.002 2.676 0 .977.331 1.637.331 1.637s-1.137 4.794-1.336 5.634c-.397 1.672-.059 3.722-.031 3.93.017.122.175.151.247.059.102-.134 1.425-1.759 1.875-3.384.127-.46.73-2.842.73-2.842.361.685 1.416 1.289 2.537 1.289 3.339 0 5.604-3.031 5.604-7.087C13.999 2.857 11.39 0 7.424 0Z" clip-rule="evenodd"/>
        </symbol>
        <symbol id="check" viewBox="0 0 13 10">
            <path d="m2 4.8-.1-.1-1 .9v.1l3.5 3.4h.1l7.6-7.2v-.1l-1-.9-6.6 6.3L2 4.8Z"/>
        </symbol>
    </defs>
</svg>